<svg xmlns="http://www.w3.org/2000/svg" xmlns:xlink="http://www.w3.org/1999/xlink" width="16" height="16" viewBox="0 0 16 16" fill="none">
<path d="M14.9189 1C13.137 1.16823 11.3531 1.47185 9.67782 2.08307C8.55464 2.48125 7.50748 3.05464 6.54581 3.72957C6.81499 4.12775 7.1169 4.51001 7.3143 4.94702C7.94239 6.18438 7.95928 7.65071 7.48214 8.93585C7.97089 8.58445 8.40369 8.16934 8.87555 7.79903C9.2049 7.57505 9.17851 7.15397 9.28196 6.82049C8.85338 6.66918 8.48814 6.32674 8.4533 5.87878C8.45219 5.83612 8.45101 5.79344 8.44985 5.75072C8.43779 5.31001 8.42565 4.86672 8.46703 4.42838C8.53142 4.09789 9.05923 4.0521 9.17746 4.37463C9.2392 4.6485 9.23025 4.92947 9.22131 5.21054C9.21526 5.40045 9.20921 5.59039 9.22496 5.77823C9.20875 5.91809 9.31448 6.00455 9.41606 6.08762C9.4468 6.11275 9.47715 6.13758 9.50364 6.16348C9.66937 5.83099 9.83616 5.49453 9.94066 5.14014C9.97496 4.87854 9.96954 4.6146 9.96413 4.3507C9.95838 4.07031 9.95262 3.78998 9.9945 3.51255C10.0526 3.27563 10.3893 3.1731 10.5793 3.34333C10.7632 3.5026 10.7555 3.73233 10.7479 3.9584C10.7443 4.06577 10.7407 4.17233 10.7577 4.2701C11.0364 3.86196 11.199 3.39111 11.4882 2.99193C11.7774 2.6893 12.3105 3.11935 12.0793 3.45084C11.4534 4.60159 10.8126 5.74738 10.099 6.85234C10.9319 6.24511 11.7341 5.59706 12.5828 5.00974C12.9122 4.81263 13.3365 5.29344 13.0557 5.55226C11.7827 6.53678 10.46 7.46854 9.21862 8.48889C9.99344 8.3535 10.7556 8.10962 11.427 7.71641C11.618 7.61089 11.8027 7.48446 12.0202 7.4327C12.3506 7.40781 12.6071 7.85975 12.3136 8.05287C11.5009 8.60536 10.5519 8.96173 9.57753 9.1668C8.99272 9.2972 8.37097 9.32906 7.83471 9.60779C7.56131 9.75811 7.26046 9.85666 6.98284 9.99702C6.5437 10.4062 6.1489 10.8571 5.70132 11.2603C5.89767 11.4335 6.07606 11.6266 6.29774 11.7729C7.44097 12.2776 8.78266 12.196 9.95016 11.8058C11.6929 11.2065 13.0156 9.81783 13.8084 8.27188C14.9368 6.01715 15.1448 3.45581 14.9189 1ZM2.61577 1.98651C1.95812 3.54939 1.41659 5.26756 1.80717 6.95587C2.05841 8.19821 2.8744 9.31811 4.0208 9.9791C4.47999 9.23549 4.632 8.32165 4.39871 7.48745C4.16753 6.63931 3.85295 5.81407 3.58694 4.97589C3.46977 4.73698 3.68722 4.37761 3.98702 4.46422C4.26464 4.50702 4.30792 4.81363 4.39343 5.0177C4.67316 5.90764 5.02785 6.78067 5.20519 7.6955C5.36565 8.58943 5.17141 9.52118 4.73333 10.3215C4.87901 10.4519 5.02046 10.5873 5.15875 10.7247C5.6475 10.2668 6.15841 9.80987 6.48882 9.2325C6.77595 8.71585 6.93957 8.14446 7.01451 7.56709C7.17497 6.21524 6.61549 4.82657 5.60422 3.86794C4.77978 3.02677 3.69461 2.48125 2.61577 1.98651ZM1.9729 12.2378C2.60837 11.6624 3.19107 11.0313 3.86033 10.4918C4.47575 11.0841 5.09645 11.6704 5.71927 12.2557C4.92756 13.0461 4.10101 13.8067 3.28608 14.5762C2.99156 14.8857 2.53343 15.0629 2.09324 14.9793C1.41025 14.8728 0.894059 14.1909 1.01862 13.5459C1.07668 12.9814 1.57915 12.6121 1.9729 12.2378ZM3.41275 12.2916C3.1953 12.3782 3.04751 12.6141 3.15518 12.8301C3.24808 13.1646 3.78327 13.2034 3.94478 12.9018C4.15801 12.5982 3.76533 12.1413 3.41275 12.2916ZM2.14074 13.3836C1.94756 13.5011 1.8325 13.7609 1.96973 13.956C2.11751 14.2536 2.64004 14.2387 2.75088 13.9241C2.93245 13.5946 2.48592 13.1895 2.14074 13.3836Z" fill-rule="evenodd"  fill="url(#linear_fill_1_2)" >
</path>
<defs>
<linearGradient id="linear_fill_1_2" x1="-2.79510498046875" y1="16.405029296875" x2="25.16778564453125" y2="-8.022003173828125" gradientUnits="userSpaceOnUse">
<stop offset="0" stop-color="#40CF79"  />
<stop offset="0.6687" stop-color="#04E0A9" stop-opacity="0.41" />
<stop offset="1" stop-color="#00BAAD" stop-opacity="0.01" />
</linearGradient>
</defs>
</svg>
